<svg xmlns="http://www.w3.org/2000/svg" width="429" height="100.17637569935256" viewBox="0 0 346.8315845394859 80.98911682337832" class="looka-1j8o68f"><defs id="SvgjsDefs2440"/><g id="SvgjsG2441" featurekey="5TMTKC-0" transform="matrix(0.997402954029687,0,0,0.997402954029687,-9.375581680214545,-9.375585485004866)" fill="#8c52ff"><g xmlns="http://www.w3.org/2000/svg"><circle cx="50" cy="50" r="17.8"/><path d="M50,78.9c16,0,28.9-13,28.9-28.9c0-8.9-4-17.1-10.9-22.6l-5.3,6.7c4.9,3.9,7.7,9.7,7.7,15.9c0,11.2-9.1,20.4-20.4,20.4   c-11.2,0-20.4-9.1-20.4-20.4S38.8,29.6,50,29.6c0.9,0,1.8,0.1,2.7,0.2l1.1-8.5c-1.3-0.2-2.6-0.3-3.9-0.3c-16,0-28.9,13-28.9,28.9   C21.1,66,34,78.9,50,78.9z"/><path d="M50,82.1c-7.3,0-14.1-2.4-19.8-6.9l-5.3,6.7c7.2,5.7,15.9,8.7,25.1,8.7c15.2,0,29-8.4,36-21.8l-7.5-3.9   C72.9,75.5,62,82.1,50,82.1z"/><path d="M46.4,18.1c1.2-0.1,2.4-0.2,3.6-0.2c17.7,0,32.1,14.4,32.1,32.1h8.5C90.6,27.6,72.4,9.4,50,9.4c-1.5,0-3,0.1-4.5,0.2   C24.9,11.9,9.4,29.3,9.4,50c0,4.4,0.7,8.7,2.1,12.8l8.1-2.7c-1.1-3.3-1.6-6.7-1.6-10.2C17.9,33.6,30.2,19.9,46.4,18.1z"/></g></g><g id="SvgjsG2442" featurekey="nameLeftFeature-0" transform="matrix(2.237268406772994,0,0,2.237268406772994,95.40682898306751,13.231971935554787)" fill="#111111"><path d="M9 11.5 l0 1 l-5.5 0 l0 4.5 l6.5 0 l0 1 l-7.5 0 l0 -12.5 l7.5 0 l0 1 l-6.5 0 l0 5 l5.5 0 z M10 8 l-4.6 0 l-1.06 -1 l5.66 0 l0 1 z M4 7.359999999999999 l1 0.98 l0 2.66 l-1 0 l0 -3.64 z M9 14 l-3.6 0 l-1.06 -1 l4.66 0 l0 1 z M4 13.36 l1 0.98 l0 2.16 l-1 0 l0 -3.14 z M10 19.5 l-7.5 0 l0 -1 l7.5 0 l0 1 z M21.259999999999998 19.5 l-5.76 -10.26 l0 10.26 l-1 0 l0 -14 l7.9 14 l-1.14 0 z M23 19.5 l-7.9 -14 l1.14 0 l5.76 10.26 l0 -10.26 l1 0 l0 14 z M20.5 5.5 l1 0 l0 8.3 l-1 -1.74 l0 -6.56 z M17 19.5 l-1 0 l0 -8.34 l1 1.74 l0 6.6 z M26.44 5.5 l1.06 0 l3.6 10.8 l3.6 -10.8 l1.04 0 l-4.64 14 z M29.06 5.5 l2.54 7.7 l-0.5 1.56 l-3.1 -9.26 l1.06 0 z M32.66 19.5 l-1.06 0 l4.66 -14 l1.04 0 z M40.74 5.5 l1 0 l0 14 l-1 0 l0 -14 z M42.24 5.5 l1 0 l0 14 l-1 0 l0 -14 z M50.24 15.4 c0 1.04 0.74 1.86 1.76 1.86 c0.98 0 1.74 -0.82 1.74 -1.86 l0 -0.24 c0 -1.12 -0.76 -1.9 -1.74 -1.9 c-2.32 0 -4.02 -1.7 -4.02 -3.9 l0 -0.26 c0 -2.2 1.7 -3.84 4.02 -3.84 c2.28 0 3.98 1.64 3.98 3.84 l-0.98 0 c0 -1.6 -1.32 -2.86 -3 -2.86 c-1.72 0 -3 1.26 -3 2.86 l0 0.26 c0 1.64 1.28 2.88 3 2.88 c1.54 0 2.74 1.26 2.74 2.92 l0 0.24 c0 1.6 -1.2 2.84 -2.74 2.84 c-1.56 0 -2.76 -1.24 -2.76 -2.84 l1 0 z M52 7.74 c-0.36 0 -0.72 0.12 -0.9 0.26 l-0.76 -0.7 c0.4 -0.3 1.1 -0.54 1.66 -0.54 c1.38 0 2.48 0.98 2.48 2.34 l-0.98 0 c0 -0.76 -0.66 -1.36 -1.5 -1.36 z M50.5 9.36 c0 0.78 0.64 1.38 1.5 1.38 c2.4 0 4.24 1.92 4.24 4.42 l0 0.24 c0 1.16 -0.5 2.2 -1.16 3 l-0.74 -0.7 c0.5 -0.66 0.9 -1.64 0.9 -2.3 l0 -0.24 c0 -1.96 -1.4 -3.4 -3.24 -3.4 c-1.42 0 -2.52 -1.06 -2.52 -2.4 l0 -0.26 c0 -0.46 0.2 -1.1 0.5 -1.44 l0.76 0.74 c-0.16 0.24 -0.24 0.54 -0.24 0.7 l0 0.26 z M48.74 15.4 c0 1.9 1.4 3.36 3.26 3.36 c0.68 0 1.54 -0.3 1.98 -0.7 l0.76 0.74 c-0.64 0.56 -1.8 0.94 -2.74 0.94 c-2.4 0 -4.26 -1.84 -4.26 -4.34 l1 0 z M60.74 5.5 l1 0 l0 14 l-1 0 l0 -14 z M62.24 5.5 l1 0 l0 14 l-1 0 l0 -14 z M76.74000000000001 14.76 c0 1.38 -0.4 2.58 -1.1 3.48 l-0.76 -0.68 c0.56 -0.7 0.86 -1.66 0.86 -2.8 l0 -4.5 c0 -2.4 -1.4 -4.02 -3.5 -4.02 s-3.5 1.62 -3.5 4.02 l0 4.5 c0 2.4 1.4 4 3.5 4 c0.9 0 1.7 -0.3 2.3 -0.86 l0.7 0.7 c-0.76 0.76 -1.8 1.14 -3 1.14 c-2.7 0 -4.5 -1.98 -4.5 -4.98 l0 -4.5 c0 -3 1.8 -5 4.5 -5 s4.5 2 4.5 5 l0 4.5 z M70.58000000000001 8.7 c-0.2 0.4 -0.34 0.96 -0.34 1.56 l0 4.5 c0 1.5 0.8 2.5 2 2.5 s2 -1 2 -2.5 l0 -4.5 c0 -1.5 -0.8 -2.52 -2 -2.52 c-0.54 0 -1 0.22 -1.3 0.56 l-0.74 -0.7 c0.48 -0.54 1.2 -0.84 2.04 -0.84 c1.8 0 3 1.4 3 3.5 l0 4.5 c0 2.1 -1.2 3.48 -3 3.48 s-3 -1.38 -3 -3.48 l0 -4.5 c0 -0.9 0.2 -1.7 0.6 -2.3 z M88.00000000000001 19.5 l-5.76 -10.26 l0 10.26 l-1 0 l0 -14 l7.9 14 l-1.14 0 z M89.74000000000001 19.5 l-7.9 -14 l1.14 0 l5.76 10.26 l0 -10.26 l1 0 l0 14 z M87.24000000000001 5.5 l1 0 l0 8.3 l-1 -1.74 l0 -6.56 z M83.74000000000001 19.5 l-1 0 l0 -8.34 l1 1.74 l0 6.6 z"/></g><g id="SvgjsG2443" featurekey="nameRightFeature-0" transform="matrix(2.159709984878906,0,0,2.159709984878906,307.43847593944304,14.201450075605472)" fill="#545454"><path d="M4.64 17.759999999999998 l-0.74 2.24 l-3.64 0 l4.98 -15 l2.26 0 l5 15 l-3.66 0 l-0.78 -2.24 l-3.42 0 z M3.6 14.76 l3.04 -9.26 l-1.04 0 l-4.66 14 l1.06 0 l1.26 -3.74 l4.14 0 l-0.36 -1 l-3.44 0 z M7.16 8.7 l3.6 10.8 l1.04 0 l-4.6 -14 l-2.96 8.76 l1.06 0 z M3.94 16.259999999999998 l0.7 1 l3.76 0 l0.74 2.24 l1.1 0 l-3.08 -9.24 l-0.52 1.54 l1.46 4.46 l-4.16 0 z M6.34 12.66 l-0.54 1.6 l1.1 0 z M4.2 17.5 l-0.64 -1 l-1.06 3 l1.06 0 z M18.240000000000002 5 l0 15 l-3.5 0 l0 -15 l3.5 0 z M15.24 19.5 l1 0 l0 -14 l-1 0 l0 14 z M16.740000000000002 19.5 l1 0 l0 -14 l-1 0 l0 14 z"/></g></svg>